<svg width="800" height="800" viewBox="0 0 800 800" fill="none" xmlns="http://www.w3.org/2000/svg">
<rect width="800" height="1000" fill="black"/>
<path fill-rule="evenodd" clip-rule="evenodd" d="M221.695 441.821C221.725 443.836 221.833 448.607 221.942 452.411L222.139 459.326H301.979H381.819V448.459C381.819 442.483 381.583 437.593 381.287 437.593C377.551 437.593 363.998 433.74 358.528 431.122C340.963 422.706 339.336 415.05 339.642 342.027C339.829 299.707 339.77 298.275 337.907 296.912C336.123 295.598 335.985 294.235 336.024 277.392C336.064 263.453 336.458 257.881 337.749 253.219C339.258 247.795 339.435 240.584 339.435 185.452C339.435 151.519 339.721 119.028 340.076 113.239L340.716 102.709L365.457 102.719C398.842 102.728 408.236 104.398 425.603 113.447C432.966 117.27 436.357 119.957 446.401 129.875C456.524 139.872 459.048 143.003 462.527 149.839C473.369 171.177 476.908 189.67 474.562 212.855C471.704 241.256 462.547 261.616 443.976 280.879C428.491 296.941 410.424 306.543 387.901 310.683C382.844 311.611 379.069 312.668 379.523 313.024C379.976 313.389 382.874 315.375 385.969 317.449C392.534 321.845 397.787 327.476 402.282 334.944C407.595 343.776 421.109 368.334 425.879 377.827C428.344 382.717 432.03 389.603 434.07 393.139C436.111 396.676 441.897 406.89 446.933 415.86C451.97 424.83 457.401 434.165 459.008 436.605C463.72 443.757 470.619 450.395 476.445 453.369C487.889 459.217 488.924 459.326 532.806 459.326H573.042V448.617V437.909L566.349 436.713C562.12 435.953 557.054 434.076 552.599 431.606C537.212 423.091 528.469 411.81 507.474 373.382C493.931 348.597 478.042 321.203 474.424 316.402C470.127 310.702 464.715 306.277 457.963 302.938C455.657 301.802 453.774 300.606 453.774 300.27C453.774 299.935 456.012 299.095 458.742 298.394C474.956 294.225 495.015 283.2 507.178 271.761C525.67 254.375 535.96 234.934 540.475 208.884C544.782 184.029 541.736 161.585 531.071 139.566C526.064 129.233 519.628 120.905 508.962 110.997C499.786 102.472 495.143 99.2512 483.759 93.5216C467.14 85.1742 450.876 80.7585 426.668 78.0419C421.296 77.4294 379.237 77.0343 319.968 77.0343L222.139 77.0244V87.3969C222.139 93.0969 222.326 97.7694 222.543 97.7694C225.046 97.7694 238.678 101.039 243.045 102.679C250.674 105.554 256.569 112.113 259.161 120.638C261.014 126.724 261.073 131.208 261.073 268.669C261.073 399.728 260.945 410.841 259.388 415.889C255.898 427.161 247.185 433.394 230.645 436.466L221.646 438.136L221.695 441.821Z" fill="#FBFCFC"/>
<g clip-path="url(#clip0_65_57)">
<path d="M339.885 322C339.895 311.368 339.808 304.167 339.623 303.526C339.307 302.416 338.401 301.516 337.605 301.516C336.733 301.516 335.871 299.696 335.403 296.835C334.268 289.894 335.697 265.839 337.616 259.508C339.023 254.837 339.285 244.505 339.296 191.405C339.296 176.802 339.361 162.479 339.459 150.357C339.285 190.075 339.917 252.857 340.768 251.006C347.115 237.134 351.062 231.733 362.36 221.421C373.625 211.159 374.486 210.609 391.258 202.857C400.767 198.466 411.498 193.795 415.097 192.485C433.297 185.824 449.633 176.062 456.623 167.67C460.778 162.689 464.082 154.458 463.341 150.917C462.381 146.326 465.467 148.957 469.36 156.058C484.289 183.273 484.922 223.001 470.887 250.866C454.398 283.593 423.941 305.687 385.795 312.598C371.793 315.129 353.745 317.089 352.763 316.189C352.349 315.809 354.563 310.798 357.671 305.047C366.242 289.234 377.66 276.861 399.83 259.388C415.511 247.016 428.848 233.913 433.461 226.362C435.653 222.761 437.452 219.53 437.452 219.19C437.452 218.85 432.905 222.721 427.332 227.792C417.267 236.954 415.195 238.404 394.377 250.726C380.778 258.778 366.395 269.13 360.222 275.301C357.627 277.892 352.033 284.233 347.802 289.384L340.092 298.756L339.885 322ZM339.808 123.852C339.874 121.151 339.95 119.201 340.015 118.141L340.288 114L339.906 121.731C339.874 122.352 339.841 123.062 339.808 123.852Z" fill="#6493CC"/>
</g>
<rect x="329" y="97" width="12" height="346" fill="#FBFCFC"/>
<path d="M172.991 546.08V581.36H193.711C198.938 581.36 203.371 579.68 207.011 576.32C210.651 572.867 212.471 568.62 212.471 563.58C212.471 558.913 210.745 554.853 207.291 551.4C203.931 547.853 199.685 546.08 194.551 546.08H172.991ZM172.991 634H160.111V533.76H194.271C202.951 533.76 210.325 536.653 216.391 542.44C222.551 548.133 225.631 555.18 225.631 563.58C225.631 570.487 223.345 576.647 218.771 582.06C214.291 587.38 208.598 590.787 201.691 592.28L201.411 592.7L229.551 633.44V634H214.291L187.271 593.4H172.991V634ZM268.242 636.24C258.162 636.24 249.855 632.787 243.322 625.88C236.788 618.973 233.522 610.247 233.522 599.7C233.522 589.247 236.695 580.567 243.042 573.66C249.388 566.66 257.508 563.16 267.402 563.16C277.575 563.16 285.648 566.473 291.622 573.1C297.688 579.633 300.722 588.827 300.722 600.68L300.582 602.08H246.682C246.868 608.8 249.108 614.213 253.402 618.32C257.695 622.427 262.828 624.48 268.802 624.48C277.015 624.48 283.455 620.373 288.122 612.16L299.602 617.76C296.522 623.547 292.228 628.073 286.722 631.34C281.308 634.607 275.148 636.24 268.242 636.24ZM247.662 591.44H287.002C286.628 586.68 284.668 582.76 281.122 579.68C277.668 576.507 273.002 574.92 267.122 574.92C262.268 574.92 258.068 576.413 254.522 579.4C251.068 582.387 248.782 586.4 247.662 591.44ZM322.564 613C322.564 616.36 323.964 619.16 326.764 621.4C329.657 623.64 333.017 624.76 336.844 624.76C342.257 624.76 347.064 622.753 351.264 618.74C355.557 614.727 357.704 610.013 357.704 604.6C353.69 601.427 348.09 599.84 340.904 599.84C335.677 599.84 331.29 601.1 327.744 603.62C324.29 606.14 322.564 609.267 322.564 613ZM339.224 563.16C348.744 563.16 356.257 565.727 361.764 570.86C367.27 575.9 370.024 582.853 370.024 591.72V634H357.704V624.48H357.144C351.824 632.32 344.73 636.24 335.864 636.24C328.304 636.24 321.957 634 316.824 629.52C311.784 625.04 309.264 619.44 309.264 612.72C309.264 605.627 311.924 599.98 317.244 595.78C322.657 591.58 329.844 589.48 338.804 589.48C346.457 589.48 352.757 590.88 357.704 593.68V590.74C357.704 586.26 355.93 582.48 352.384 579.4C348.837 576.227 344.684 574.64 339.924 574.64C332.737 574.64 327.044 577.673 322.844 583.74L311.504 576.6C317.757 567.64 326.997 563.16 339.224 563.16ZM414.667 624.48C421.014 624.48 426.194 622.193 430.207 617.62C434.407 613.047 436.507 607.073 436.507 599.7C436.507 592.513 434.407 586.587 430.207 581.92C426.101 577.253 420.921 574.92 414.667 574.92C408.507 574.92 403.327 577.253 399.127 581.92C394.927 586.587 392.827 592.513 392.827 599.7C392.827 606.98 394.927 612.907 399.127 617.48C403.327 622.147 408.507 624.48 414.667 624.48ZM412.567 636.24C403.607 636.24 395.907 632.693 389.467 625.6C383.121 618.413 379.947 609.78 379.947 599.7C379.947 589.62 383.121 580.987 389.467 573.8C395.907 566.707 403.607 563.16 412.567 563.16C417.607 563.16 422.181 564.233 426.287 566.38C430.487 568.527 433.707 571.373 435.947 574.92H436.507L435.947 565.4V533.76H448.827V634H436.507V624.48H435.947C433.707 628.027 430.487 630.873 426.287 633.02C422.181 635.167 417.607 636.24 412.567 636.24ZM477.411 634H464.531V565.4H476.851V574.92H477.411C479.371 571.56 482.358 568.76 486.371 566.52C490.478 564.28 494.538 563.16 498.551 563.16C503.591 563.16 508.025 564.327 511.851 566.66C515.678 568.993 518.478 572.213 520.251 576.32C525.945 567.547 533.831 563.16 543.911 563.16C551.845 563.16 557.958 565.587 562.251 570.44C566.545 575.293 568.691 582.2 568.691 591.16V634H555.811V593.12C555.811 586.68 554.645 582.06 552.311 579.26C549.978 576.367 546.058 574.92 540.551 574.92C535.605 574.92 531.451 577.02 528.091 581.22C524.731 585.42 523.051 590.367 523.051 596.06V634H510.171V593.12C510.171 586.68 509.005 582.06 506.671 579.26C504.338 576.367 500.418 574.92 494.911 574.92C489.965 574.92 485.811 577.02 482.451 581.22C479.091 585.42 477.411 590.367 477.411 596.06V634ZM614.55 636.24C604.47 636.24 596.163 632.787 589.63 625.88C583.097 618.973 579.83 610.247 579.83 599.7C579.83 589.247 583.003 580.567 589.35 573.66C595.697 566.66 603.817 563.16 613.71 563.16C623.883 563.16 631.957 566.473 637.93 573.1C643.997 579.633 647.03 588.827 647.03 600.68L646.89 602.08H592.99C593.177 608.8 595.417 614.213 599.71 618.32C604.003 622.427 609.137 624.48 615.11 624.48C623.323 624.48 629.763 620.373 634.43 612.16L645.91 617.76C642.83 623.547 638.537 628.073 633.03 631.34C627.617 634.607 621.457 636.24 614.55 636.24ZM593.97 591.44H633.31C632.937 586.68 630.977 582.76 627.43 579.68C623.977 576.507 619.31 574.92 613.43 574.92C608.577 574.92 604.377 576.413 600.83 579.4C597.377 582.387 595.09 586.4 593.97 591.44Z" fill="white"/>
<path d="M268.041 709.64C266.601 709.64 265.281 709.333 264.081 708.72C262.908 708.107 262.001 707.293 261.361 706.28H261.201V709H257.681V680.36H261.361V689.4L261.201 692.12H261.361C262.001 691.107 262.908 690.293 264.081 689.68C265.281 689.067 266.601 688.76 268.041 688.76C270.628 688.76 272.815 689.773 274.601 691.8C276.441 693.853 277.361 696.32 277.361 699.2C277.361 702.107 276.441 704.573 274.601 706.6C272.815 708.627 270.628 709.64 268.041 709.64ZM267.441 706.28C269.201 706.28 270.681 705.613 271.881 704.28C273.081 702.973 273.681 701.28 273.681 699.2C273.681 697.147 273.081 695.453 271.881 694.12C270.681 692.787 269.201 692.12 267.441 692.12C265.655 692.12 264.161 692.787 262.961 694.12C261.788 695.453 261.201 697.147 261.201 699.2C261.201 701.28 261.788 702.987 262.961 704.32C264.161 705.627 265.655 706.28 267.441 706.28ZM297.467 689.4L285.187 717.64H281.387L285.947 707.76L277.867 689.4H281.867L287.707 703.48H287.787L293.467 689.4H297.467ZM312.978 696.72V709H309.298V680.36H326.018V683.88H312.978V693.28H324.738V696.72H312.978ZM333.236 680.36V709H329.556V680.36H333.236ZM354.92 709H351.4V706.28H351.24C350.68 707.24 349.814 708.04 348.64 708.68C347.494 709.32 346.294 709.64 345.04 709.64C342.64 709.64 340.787 708.96 339.48 707.6C338.2 706.213 337.56 704.253 337.56 701.72V689.4H341.24V701.48C341.32 704.68 342.934 706.28 346.08 706.28C347.547 706.28 348.774 705.693 349.76 704.52C350.747 703.32 351.24 701.893 351.24 700.24V689.4H354.92V709ZM380.155 709.32C378.555 709.32 377.222 708.827 376.155 707.84C375.115 706.853 374.582 705.48 374.555 703.72V692.76H365.435V702.64C365.435 703.787 365.662 704.613 366.115 705.12C366.595 705.627 367.155 705.88 367.795 705.88C368.409 705.88 368.995 705.76 369.555 705.52L370.715 708.8C369.755 709.147 368.635 709.32 367.355 709.32C365.755 709.32 364.422 708.827 363.355 707.84C362.315 706.853 361.782 705.48 361.755 703.72V692.76H358.315V689.4H361.755V683.4H365.435V689.4H374.555V683.4H378.235V689.4H383.035V692.76H378.235V702.52C378.235 703.827 378.489 704.72 378.995 705.2C379.502 705.653 380.075 705.88 380.715 705.88C381.009 705.88 381.289 705.853 381.555 705.8C381.849 705.72 382.115 705.627 382.355 705.52L383.515 708.8C382.555 709.147 381.435 709.32 380.155 709.32ZM395.153 709.64C392.273 709.64 389.9 708.653 388.033 706.68C386.167 704.707 385.233 702.213 385.233 699.2C385.233 696.213 386.14 693.733 387.953 691.76C389.767 689.76 392.087 688.76 394.913 688.76C397.82 688.76 400.127 689.707 401.833 691.6C403.567 693.467 404.433 696.093 404.433 699.48L404.393 699.88H388.993C389.047 701.8 389.687 703.347 390.913 704.52C392.14 705.693 393.607 706.28 395.313 706.28C397.66 706.28 399.5 705.107 400.833 702.76L404.113 704.36C403.233 706.013 402.007 707.307 400.433 708.24C398.887 709.173 397.127 709.64 395.153 709.64ZM389.273 696.84H400.513C400.407 695.48 399.847 694.36 398.833 693.48C397.847 692.573 396.513 692.12 394.833 692.12C393.447 692.12 392.247 692.547 391.233 693.4C390.247 694.253 389.593 695.4 389.273 696.84ZM411.479 709H407.799V689.4H411.319V692.6H411.479C411.852 691.56 412.612 690.68 413.759 689.96C414.932 689.213 416.079 688.84 417.199 688.84C418.265 688.84 419.172 689 419.919 689.32L418.799 692.88C418.345 692.693 417.625 692.6 416.639 692.6C415.252 692.6 414.039 693.16 412.999 694.28C411.985 695.4 411.479 696.707 411.479 698.2V709ZM439.41 680.36H444.17V680.52L433.53 692.8L444.89 708.84V709H440.37L431.05 695.64L426.65 700.72V709H422.97V680.36H426.65V695.12H426.81L439.41 680.36ZM449.502 703C449.502 703.96 449.902 704.76 450.702 705.4C451.529 706.04 452.489 706.36 453.582 706.36C455.129 706.36 456.502 705.787 457.702 704.64C458.929 703.493 459.542 702.147 459.542 700.6C458.395 699.693 456.795 699.24 454.742 699.24C453.249 699.24 451.995 699.6 450.982 700.32C449.995 701.04 449.502 701.933 449.502 703ZM454.262 688.76C456.982 688.76 459.129 689.493 460.702 690.96C462.275 692.4 463.062 694.387 463.062 696.92V709H459.542V706.28H459.382C457.862 708.52 455.835 709.64 453.302 709.64C451.142 709.64 449.329 709 447.862 707.72C446.422 706.44 445.702 704.84 445.702 702.92C445.702 700.893 446.462 699.28 447.982 698.08C449.529 696.88 451.582 696.28 454.142 696.28C456.329 696.28 458.129 696.68 459.542 697.48V696.64C459.542 695.36 459.035 694.28 458.022 693.4C457.009 692.493 455.822 692.04 454.462 692.04C452.409 692.04 450.782 692.907 449.582 694.64L446.342 692.6C448.129 690.04 450.769 688.76 454.262 688.76ZM467.213 689.4H470.733V692.12H470.893C471.453 691.16 472.306 690.36 473.453 689.72C474.626 689.08 475.839 688.76 477.093 688.76C479.493 688.76 481.333 689.453 482.613 690.84C483.919 692.2 484.573 694.147 484.573 696.68V709H480.893V696.92C480.813 693.72 479.199 692.12 476.053 692.12C474.586 692.12 473.359 692.72 472.373 693.92C471.386 695.093 470.893 696.507 470.893 698.16V709H467.213V689.4ZM498.492 706.28C500.252 706.28 501.732 705.613 502.932 704.28C504.132 702.973 504.732 701.28 504.732 699.2C504.732 697.147 504.132 695.453 502.932 694.12C501.732 692.787 500.252 692.12 498.492 692.12C496.706 692.12 495.212 692.787 494.012 694.12C492.839 695.453 492.252 697.147 492.252 699.2C492.252 701.28 492.839 702.987 494.012 704.32C495.212 705.627 496.706 706.28 498.492 706.28ZM499.092 709.64C497.652 709.64 496.332 709.333 495.132 708.72C493.959 708.107 493.052 707.293 492.412 706.28H492.252L492.412 709V717.64H488.732V689.4H492.252V692.12H492.412C493.052 691.107 493.959 690.293 495.132 689.68C496.332 689.067 497.652 688.76 499.092 688.76C501.679 688.76 503.866 689.773 505.652 691.8C507.492 693.853 508.412 696.32 508.412 699.2C508.412 702.107 507.492 704.573 505.652 706.6C503.866 708.627 501.679 709.64 499.092 709.64ZM528.788 709H525.268V706.28H525.108C524.548 707.24 523.681 708.04 522.508 708.68C521.361 709.32 520.161 709.64 518.908 709.64C516.508 709.64 514.654 708.96 513.348 707.6C512.068 706.213 511.428 704.253 511.428 701.72V689.4H515.108V701.48C515.188 704.68 516.801 706.28 519.948 706.28C521.414 706.28 522.641 705.693 523.628 704.52C524.614 703.32 525.108 701.893 525.108 700.24V689.4H528.788V709ZM536.947 709H533.267V689.4H536.787V692.6H536.947C537.321 691.56 538.081 690.68 539.227 689.96C540.401 689.213 541.547 688.84 542.667 688.84C543.734 688.84 544.641 689 545.387 689.32L544.267 692.88C543.814 692.693 543.094 692.6 542.107 692.6C540.721 692.6 539.507 693.16 538.467 694.28C537.454 695.4 536.947 696.707 536.947 698.2V709Z" fill="#949494"/>
<defs>
<clipPath id="clip0_65_57">
<rect width="148" height="197" fill="white" transform="translate(341 133)"/>
</clipPath>
</defs>
</svg>
